REM DIRINDEX 1\2,1\3,1\4
REM DIRNAME cjc151,folder01,folder02,folder03
TITLE ""
FILE "058 058_TOEFL_3900.mp3" MP3
  TRACK 01 AUDIO
    TITLE "2:cjc151_2499"
    INDEX 01 00:00:00
  TRACK 02 AUDIO
    TITLE "0:"
    INDEX 01 00:01:28
  TRACK 03 AUDIO
    TITLE "3:cjc151_2500"
    INDEX 01 00:03:08
  TRACK 04 AUDIO
    TITLE "0:"
    INDEX 01 00:07:19
  TRACK 05 AUDIO
    TITLE "2:cjc151_2501"
    INDEX 01 00:09:04
  TRACK 06 AUDIO
    TITLE "0:"
    INDEX 01 00:10:18
  TRACK 07 AUDIO
    TITLE "3:cjc151_2502"
    INDEX 01 00:11:70
  TRACK 08 AUDIO
    TITLE "0:"
    INDEX 01 00:15:30
  TRACK 09 AUDIO
    TITLE "2:cjc151_2503"
    INDEX 01 00:17:10
  TRACK 10 AUDIO
    TITLE "0:"
    INDEX 01 00:18:15
  TRACK 11 AUDIO
    TITLE "3:cjc151_2504"
    INDEX 01 00:19:69
  TRACK 12 AUDIO
    TITLE "0:"
    INDEX 01 00:25:01
  TRACK 13 AUDIO
    TITLE "2:cjc151_2505"
    INDEX 01 00:26:60
  TRACK 14 AUDIO
    TITLE "0:"
    INDEX 01 00:27:69
  TRACK 15 AUDIO
    TITLE "3:cjc151_2506"
    INDEX 01 00:29:46
  TRACK 16 AUDIO
    TITLE "0:"
    INDEX 01 00:33:15
  TRACK 17 AUDIO
    TITLE "2:cjc151_2507"
    INDEX 01 00:34:67
  TRACK 18 AUDIO
    TITLE "0:"
    INDEX 01 00:37:30
  TRACK 19 AUDIO
    TITLE "3:cjc151_2508"
    INDEX 01 00:39:03
  TRACK 20 AUDIO
    TITLE "0:"
    INDEX 01 00:43:11
  TRACK 21 AUDIO
    TITLE "2:cjc151_2509"
    INDEX 01 00:44:65
  TRACK 22 AUDIO
    TITLE "0:"
    INDEX 01 00:45:51
  TRACK 23 AUDIO
    TITLE "3:cjc151_2510"
    INDEX 01 00:47:48
  TRACK 24 AUDIO
    TITLE "0:"
    INDEX 01 00:54:29
  TRACK 25 AUDIO
    TITLE "2:cjc151_2511"
    INDEX 01 00:56:08
  TRACK 26 AUDIO
    TITLE "0:"
    INDEX 01 00:57:07
  TRACK 27 AUDIO
    TITLE "3:cjc151_2512"
    INDEX 01 00:58:60
  TRACK 28 AUDIO
    TITLE "0:"
    INDEX 01 01:02:50
  TRACK 29 AUDIO
    TITLE "2:cjc151_2513"
    INDEX 01 01:04:27
  TRACK 30 AUDIO
    TITLE "0:"
    INDEX 01 01:05:21
  TRACK 31 AUDIO
    TITLE "3:cjc151_2514"
    INDEX 01 01:06:71
  TRACK 32 AUDIO
    TITLE "0:"
    INDEX 01 01:10:63
  TRACK 33 AUDIO
    TITLE "2:cjc151_2515"
    INDEX 01 01:12:48
  TRACK 34 AUDIO
    TITLE "0:"
    INDEX 01 01:13:36
  TRACK 35 AUDIO
    TITLE "3:cjc151_2516"
    INDEX 01 01:15:23
  TRACK 36 AUDIO
    TITLE "0:"
    INDEX 01 01:19:01
  TRACK 37 AUDIO
    TITLE "2:cjc151_2517"
    INDEX 01 01:20:65
  TRACK 38 AUDIO
    TITLE "0:"
    INDEX 01 01:21:72
  TRACK 39 AUDIO
    TITLE "3:cjc151_2518"
    INDEX 01 01:23:46
  TRACK 40 AUDIO
    TITLE "0:"
    INDEX 01 01:26:64
  TRACK 41 AUDIO
    TITLE "2:cjc151_2519"
    INDEX 01 01:28:63
  TRACK 42 AUDIO
    TITLE "0:"
    INDEX 01 01:29:56
  TRACK 43 AUDIO
    TITLE "3:cjc151_2520"
    INDEX 01 01:31:38
  TRACK 44 AUDIO
    TITLE "0:"
    INDEX 01 01:35:04
  TRACK 45 AUDIO
    TITLE "2:cjc151_2521"
    INDEX 01 01:36:48
  TRACK 46 AUDIO
    TITLE "0:"
    INDEX 01 01:37:60
  TRACK 47 AUDIO
    TITLE "3:cjc151_2522"
    INDEX 01 01:39:37
  TRACK 48 AUDIO
    TITLE "0:"
    INDEX 01 01:43:39
  TRACK 49 AUDIO
    TITLE "2:cjc151_2523"
    INDEX 01 01:45:18
  TRACK 50 AUDIO
    TITLE "0:"
    INDEX 01 01:46:12
  TRACK 51 AUDIO
    TITLE "3:cjc151_2524"
    INDEX 01 01:47:68
  TRACK 52 AUDIO
    TITLE "0:"
    INDEX 01 01:51:60
  TRACK 53 AUDIO
    TITLE "2:cjc151_2525"
    INDEX 01 01:53:39
  TRACK 54 AUDIO
    TITLE "0:"
    INDEX 01 01:54:54
  TRACK 55 AUDIO
    TITLE "3:cjc151_2526"
    INDEX 01 01:56:26
  TRACK 56 AUDIO
    TITLE "0:"
    INDEX 01 02:00:31
  TRACK 57 AUDIO
    TITLE "2:cjc151_2527"
    INDEX 01 02:02:07
  TRACK 58 AUDIO
    TITLE "0:"
    INDEX 01 02:03:26
  TRACK 59 AUDIO
    TITLE "3:cjc151_2528"
    INDEX 01 02:05:05
  TRACK 60 AUDIO
    TITLE "0:"
    INDEX 01 02:09:03
  TRACK 61 AUDIO
    TITLE "2:cjc151_2529"
    INDEX 01 02:10:65
  TRACK 62 AUDIO
    TITLE "0:"
    INDEX 01 02:11:68
  TRACK 63 AUDIO
    TITLE "3:cjc151_2530"
    INDEX 01 02:13:54
  TRACK 64 AUDIO
    TITLE "0:"
    INDEX 01 02:17:32
  TRACK 65 AUDIO
    TITLE "2:cjc151_2531"
    INDEX 01 02:19:37
  TRACK 66 AUDIO
    TITLE "0:"
    INDEX 01 02:20:44
  TRACK 67 AUDIO
    TITLE "3:cjc151_2532"
    INDEX 01 02:22:27
  TRACK 68 AUDIO
    TITLE "0:"
    INDEX 01 02:25:70
  TRACK 69 AUDIO
    TITLE "2:cjc151_2533"
    INDEX 01 02:27:48
  TRACK 70 AUDIO
    TITLE "0:"
    INDEX 01 02:28:63
  TRACK 71 AUDIO
    TITLE "3:cjc151_2534"
    INDEX 01 02:30:40
  TRACK 72 AUDIO
    TITLE "0:"
    INDEX 01 02:34:36
  TRACK 73 AUDIO
    TITLE "2:cjc151_2535"
    INDEX 01 02:36:15
  TRACK 74 AUDIO
    TITLE "0:"
    INDEX 01 02:37:27
  TRACK 75 AUDIO
    TITLE "3:cjc151_2536"
    INDEX 01 02:39:04
  TRACK 76 AUDIO
    TITLE "0:"
    INDEX 01 02:42:32
  TRACK 77 AUDIO
    TITLE "2:cjc151_2537"
    INDEX 01 02:44:09
  TRACK 78 AUDIO
    TITLE "0:"
    INDEX 01 02:45:40
  TRACK 79 AUDIO
    TITLE "3:cjc151_2538"
    INDEX 01 02:47:21
  TRACK 80 AUDIO
    TITLE "0:"
    INDEX 01 02:51:44
  TRACK 81 AUDIO
    TITLE "2:cjc151_2539"
    INDEX 01 02:53:22
  TRACK 82 AUDIO
    TITLE "0:"
    INDEX 01 02:54:37
  TRACK 83 AUDIO
    TITLE "3:cjc151_2540"
    INDEX 01 02:56:12
  TRACK 84 AUDIO
    TITLE "0:"
    INDEX 01 03:01:58
  TRACK 85 AUDIO
    TITLE "2:cjc151_2541"
    INDEX 01 03:03:38
  TRACK 86 AUDIO
    TITLE "0:"
    INDEX 01 03:04:25
  TRACK 87 AUDIO
    TITLE "3:cjc151_2542"
    INDEX 01 03:06:09
  TRACK 88 AUDIO
    TITLE "0:"
    INDEX 01 03:09:33
